<?xml version="1.0" encoding="UTF-8"?>
<!-- Generator: Adobe Illustrator 27.3.1, SVG Export Plug-In . SVG Version: 6.00 Build 0)  -->
<svg version="1.1" xmlns="http://www.w3.org/2000/svg" xmlns:xlink="http://www.w3.org/1999/xlink" x="0px" y="0px" viewBox="0 0 144 144" style="enable-background:new 0 0 144 144;" xml:space="preserve">
<style type="text/css">
	.st0{fill:#FFFFFF;}
	.st1{fill:#FFFFFF;stroke:#FFFFFF;stroke-width:10;stroke-miterlimit:10;}
	.st2{fill:#BCCF33;}
	.st3{fill:#DD4890;}
	.st4{fill:#EB7AAB;}
	.st5{fill:#718E2C;}
	.st6{fill:#D9DC47;}
	.st7{fill:#92C021;}
	.st8{fill:#F5E95A;}
	.st9{fill:#F5A34A;}
	.st10{fill:#F19000;}
	.st11{fill:#F8B96F;}
	.st12{fill:#F0881D;}
	.st13{fill:#E63673;}
	.st14{fill:#2895D2;}
	.st15{fill:#55C1EF;}
	.st16{fill:#36ACE2;}
	.st17{fill:#006194;}
	.st18{fill:#F0882E;}
	.st19{fill:#E94A90;}
	.st20{fill:#ED7AAA;}
	.st21{fill:#EE7C15;}
	.st22{fill:#F08523;}
	.st23{fill:#F49E54;}
	.st24{fill:#F9E94C;}
	.st25{fill:#D8DB36;}
	.st26{fill:#F49E49;}
	.st27{fill:#F8B571;}
	.st28{fill:#E51C56;}
	.st29{fill:#ED7AAC;}
	.st30{fill:#EB629F;}
	.st31{fill:#C32F65;}
	.st32{fill:#E73674;}
	.st33{fill:#DC358A;}
	.st34{fill:#E35A9A;}
	.st35{fill:#DB7D0D;}
	.st36{fill:#C32F66;}
	.st37{fill:#E8629D;}
	.st38{fill:#E31E56;}
</style>
<g id="contour">
	<g>
		<path class="st0" d="M37.2,44.8v-0.2c0-4.6-3.8-8.4-8.4-8.4s-8.4,3.8-8.4,8.4v0.2c0,4.6,3.8,8.4,8.4,8.4S37.2,49.5,37.2,44.8z"/>
		<path class="st0" d="M115.2,36.2c-4.6,0-8.4,3.8-8.4,8.4v0.2c0,4.6,3.8,8.4,8.4,8.4s8.4-3.8,8.4-8.4v-0.2    C123.6,40,119.9,36.2,115.2,36.2z"/>
		<path class="st0" d="M71.9,45.3c4.6,0,8.4-3.8,8.4-8.4V24.1c0-4.6-3.8-8.4-8.4-8.4s-8.4,3.8-8.4,8.4v12.7    C63.5,41.5,67.3,45.3,71.9,45.3z"/>
		<path class="st0" d="M41,39.5c0.7,2.1,2.2,3.9,4.2,4.9c1.2,0.6,2.5,0.9,3.8,0.9c0.9,0,1.8-0.1,2.6-0.4c4.4-1.4,6.8-6.2,5.4-10.5    l-1.6-5.2c-1.4-4.4-6.2-6.8-10.6-5.4c-2.1,0.7-3.9,2.2-4.9,4.2c-1,2-1.2,4.3-0.5,6.3L41,39.5z"/>
		<path class="st0" d="M94.9,44.9c0.9,0.3,1.7,0.4,2.6,0.4c3.5,0,6.9-2.3,8-5.9l1.6-5.1c0.7-2.1,0.5-4.4-0.5-6.4    c-1-2-2.8-3.5-4.9-4.2c-4.4-1.4-9.2,1-10.6,5.5l-1.6,5.1c-0.7,2.1-0.5,4.4,0.5,6.4S92.8,44.2,94.9,44.9z"/>
		<path class="st0" d="M106.4,56.8c-1.7-2.6-4.8-4.1-7.9-3.8l-0.3,0c-1.3,0.1-2.5,0.5-3.6,1.1c-1.5-0.4-3.3-0.4-4.8,0.1    c-1.3-0.8-2.7-1.2-4.3-1.2c-1.2,0-2.4,0.3-3.4,0.7c-2.1-0.9-4.7-0.9-6.8,0c-2.1-0.9-4.7-0.9-6.8,0c-2.1-0.9-4.7-0.9-6.8,0    c-2.1-0.9-4.8-0.9-6.8,0c-2.1-0.9-4.7-0.9-6.8,0c-1.1-0.5-2.4-0.8-3.6-0.7c-0.8,0-1.6,0-2.4,0.2c-2.2,0.5-4.1,1.8-5.3,3.7    l-5.3,8.2c-0.3,0.4-0.5,0.8-0.7,1.3L25,75.2c-2.6,4-1.5,9.3,2.4,11.7c0.6,0.4,1.2,0.7,1.9,0.9c1,2.6,3.3,4.5,6.1,5.1    c0.2,0.4,0.5,0.7,0.8,1.1v2.3c0,4.4,3.3,8,7.6,8.4c1.1,2.4,3.4,4.2,6.1,4.8v0.9c0,4.5,3.5,8.2,8,8.4c1.3,2.2,3.6,3.8,6.2,4.1    c1.2,3.2,4.3,5.5,7.9,5.5s6.7-2.3,7.9-5.5c2.6-0.3,4.9-1.9,6.2-4.1c4.4-0.2,8-3.9,8-8.4v-0.9c2.7-0.5,5-2.3,6.1-4.8    c4.1-0.6,7.2-4.1,7.2-8.3v-2.5c0.1-0.2,0.2-0.3,0.4-0.5c1.2-0.2,2.3-0.6,3.3-1.2c1.7-1.1,2.9-2.7,3.5-4.6c3-1.3,5.1-4.3,5.1-7.8    v-0.2c0-2.1-0.8-4.1-2.2-5.7L106.4,56.8z M61.7,61.3L61.7,61.3L61.7,61.3L61.7,61.3z M61.7,110.3L61.7,110.3L61.7,110.3    C61.7,110.3,61.7,110.3,61.7,110.3z M68.5,114.4L68.5,114.4L68.5,114.4C68.5,114.4,68.5,114.4,68.5,114.4z M68.5,61.3L68.5,61.3    L68.5,61.3L68.5,61.3z M75.3,114.4C75.3,114.4,75.3,114.4,75.3,114.4L75.3,114.4L75.3,114.4z M82.1,110.3    C82.1,110.3,82.1,110.3,82.1,110.3L82.1,110.3L82.1,110.3z M89,101.1C89,101.1,89,101.1,89,101.1L89,101.1L89,101.1z"/>
	</g>
</g>
<g id="icones_domaines">
	<g>
		<path class="st28" d="M45.8,58.4L45.8,58.4c1.6,1,2,3.1,1,4.7L35,81.5c-1,1.6-3.3,2.2-4.9,1.1h0c-1.6-1-1.9-3.3-0.9-4.8L41,59.5    C42.1,57.9,44.2,57.4,45.8,58.4z"/>
		<path class="st29" d="M36.6,72.5L36.6,72.5c-1.6-1-2-3.1-1-4.7l5.3-8.2c1-1.6,3.1-2,4.7-1l0,0c1.6,1,2,3.1,1,4.7l-5.3,8.2    C40.3,73,38.2,73.5,36.6,72.5z"/>
		<path class="st30" d="M45.8,71.1L45.8,71.1c1.6,1,2,3.2,0.9,4.7l-6.9,10.7c-1,1.6-3,1.8-4.6,0.7l0,0c-1.6-1-2.2-2.9-1.1-4.5    l6.9-10.7C42.1,70.5,44.2,70.1,45.8,71.1z"/>
		<path class="st28" d="M51.3,75.2L51.3,75.2c1.6,1,2,3.2,0.9,4.7l-6.9,10.7c-1,1.6-3,1.8-4.6,0.7l0,0c-1.6-1-2.2-2.9-1.1-4.5    l6.9-10.7C47.6,74.6,49.7,74.1,51.3,75.2z"/>
		<path class="st29" d="M78.7,117.8L78.7,117.8c-1.9,0-3.4-1.5-3.4-3.4V61.3c0-1.9,1.5-3.4,3.4-3.4h0c1.9,0,3.4,1.5,3.4,3.4v53.1    C82.1,116.3,80.6,117.8,78.7,117.8z"/>
		<path class="st31" d="M78.7,112L78.7,112c-1.9,0-3.4-1.5-3.4-3.4V94.6c0-1.9,1.5-3.4,3.4-3.4h0c1.9,0,3.4,1.5,3.4,3.4v13.9    C82.1,110.5,80.6,112,78.7,112z"/>
		<path class="st28" d="M78.7,104.1L78.7,104.1c-1.9,0-3.4-1.5-3.4-3.4V86.8c0-1.9,1.5-3.4,3.4-3.4h0c1.9,0,3.4,1.5,3.4,3.4v13.9    C82.1,102.6,80.6,104.1,78.7,104.1z"/>
		<path class="st30" d="M78.7,93.8L78.7,93.8c-1.9,0-3.4-1.5-3.4-3.4V76.4c0-1.9,1.5-3.4,3.4-3.4h0c1.9,0,3.4,1.5,3.4,3.4v13.9    C82.1,92.2,80.6,93.8,78.7,93.8z"/>
		<path class="st29" d="M78.7,93.8L78.7,93.8c-1.9,0-3.4-1.5-3.4-3.4v-0.2c0-1.9,1.5-3.4,3.4-3.4h0c1.9,0,3.4,1.5,3.4,3.4v0.2    C82.1,92.2,80.6,93.8,78.7,93.8z"/>
		<g>
			<path class="st29" d="M58.3,113.7L58.3,113.7c-1.9,0-3.4-1.5-3.4-3.4v-49c0-1.9,1.5-3.3,3.4-3.3h0c1.9,0,3.4,1.4,3.4,3.3v49     C61.7,112.1,60.1,113.7,58.3,113.7z"/>
			<path class="st31" d="M58.3,107.8L58.3,107.8c-1.9,0-3.4-1.5-3.4-3.4v-9.8c0-1.9,1.5-3.4,3.4-3.4h0c1.9,0,3.4,1.5,3.4,3.4v9.8     C61.7,106.3,60.1,107.8,58.3,107.8z"/>
			<path class="st30" d="M58.3,104.1L58.3,104.1c-1.9,0-3.4-1.5-3.4-3.4V86.8c0-1.9,1.5-3.4,3.4-3.4h0c1.9,0,3.4,1.5,3.4,3.4v13.9     C61.7,102.6,60.1,104.1,58.3,104.1z"/>
			<path class="st29" d="M58.3,93.8L58.3,93.8c-1.9,0-3.4-1.5-3.4-3.4v-24c0-1.9,1.5-3.4,3.4-3.4h0c1.9,0,3.4,1.5,3.4,3.4v24     C61.7,92.2,60.1,93.8,58.3,93.8z"/>
			<path class="st30" d="M58.3,70.3L58.3,70.3c-1.9,0-3.4-1.5-3.4-3.4v-5.5c0-1.9,1.5-3.4,3.4-3.4h0c1.9,0,3.4,1.5,3.4,3.4v5.5     C61.7,68.7,60.1,70.3,58.3,70.3z"/>
			<path class="st28" d="M58.3,104.1L58.3,104.1c-1.9,0-3.4-1.5-3.4-3.4v-0.2c0-1.9,1.5-3.4,3.4-3.4h0c1.9,0,3.4,1.5,3.4,3.4v0.2     C61.7,102.6,60.1,104.1,58.3,104.1z"/>
		</g>
		<path class="st28" d="M65.1,117.8L65.1,117.8c-1.9,0-3.4-1.5-3.4-3.4V62.9c0-1.9,1.5-5,3.4-5h0c1.9,0,3.4,3.1,3.4,5v51.5    C68.5,116.3,67,117.8,65.1,117.8z"/>
		<path class="st32" d="M65.1,112L65.1,112c-1.9,0-3.4-1.5-3.4-3.4V94.6c0-1.9,1.5-3.4,3.4-3.4h0c1.9,0,3.4,1.5,3.4,3.4v13.9    C68.5,110.5,67,112,65.1,112z"/>
		<path class="st31" d="M65.1,104.1L65.1,104.1c-1.9,0-3.4-1.5-3.4-3.4V86.8c0-1.9,1.5-3.4,3.4-3.4h0c1.9,0,3.4,1.5,3.4,3.4v13.9    C68.5,102.6,67,104.1,65.1,104.1z"/>
		<path class="st30" d="M65.1,93.8L65.1,93.8c-1.9,0-3.4-1.5-3.4-3.4V76.4c0-1.9,1.5-3.4,3.4-3.4h0c1.9,0,3.4,1.5,3.4,3.4v13.9    C68.5,92.2,67,93.8,65.1,93.8z"/>
		<path class="st28" d="M65.1,80.3L65.1,80.3c-1.9,0-3.4-1.5-3.4-3.4V61.3c0-1.9,1.5-3.4,3.4-3.4h0c1.9,0,3.4,1.5,3.4,3.4v15.5    C68.5,78.7,67,80.3,65.1,80.3z"/>
		<path class="st29" d="M65.1,80.6L65.1,80.6c-1.9,0-3.4-1.5-3.4-3.4V77c0-1.9,1.5-3.4,3.4-3.4h0c1.9,0,3.4,1.5,3.4,3.4v0.2    C68.5,79.1,67,80.6,65.1,80.6z"/>
		<path class="st28" d="M85.5,113.7L85.5,113.7c-1.9,0-3.4-1.5-3.4-3.4v-49c0-1.9,1.5-3.3,3.4-3.3l0,0c1.9,0,3.4,1.4,3.4,3.3v49    C89,112.1,87.4,113.7,85.5,113.7z"/>
		<path class="st31" d="M85.5,107.8L85.5,107.8c-1.9,0-3.4-1.5-3.4-3.4v-9.8c0-1.9,1.5-3.4,3.4-3.4l0,0c1.9,0,3.4,1.5,3.4,3.4v9.8    C89,106.3,87.4,107.8,85.5,107.8z"/>
		<path class="st32" d="M85.5,104.1L85.5,104.1c-1.9,0-3.4-1.5-3.4-3.4V86.8c0-1.9,1.5-3.4,3.4-3.4l0,0c1.9,0,3.4,1.5,3.4,3.4v13.9    C89,102.6,87.4,104.1,85.5,104.1z"/>
		<path class="st29" d="M85.5,93.8L85.5,93.8c-1.9,0-3.4-1.5-3.4-3.4v-24c0-1.9,1.5-3.4,3.4-3.4l0,0c1.9,0,3.4,1.5,3.4,3.4v24    C89,92.2,87.4,93.8,85.5,93.8z"/>
		<path class="st30" d="M85.5,70.3L85.5,70.3c-1.9,0-3.4-1.5-3.4-3.4v-5.5c0-1.9,1.5-3.4,3.4-3.4l0,0c1.9,0,3.4,1.5,3.4,3.4v5.5    C89,68.7,87.4,70.3,85.5,70.3z"/>
		<path class="st31" d="M85.5,64.9L85.5,64.9c-1.9,0-3.4-1.5-3.4-3.4v-0.2c0-1.9,1.5-3.4,3.4-3.4l0,0c1.9,0,3.4,1.5,3.4,3.4v0.2    C89,63.4,87.4,64.9,85.5,64.9z"/>
		<path class="st31" d="M28.8,48.2L28.8,48.2c-1.9,0-3.4-1.5-3.4-3.4v-0.2c0-1.9,1.5-3.4,3.4-3.4h0c1.9,0,3.4,1.5,3.4,3.4v0.2    C32.2,46.7,30.7,48.2,28.8,48.2z"/>
		<path class="st31" d="M115.2,48.2L115.2,48.2c-1.9,0-3.4-1.5-3.4-3.4v-0.2c0-1.9,1.5-3.4,3.4-3.4h0c1.9,0,3.4,1.5,3.4,3.4v0.2    C118.6,46.7,117.1,48.2,115.2,48.2z"/>
		<path class="st31" d="M71.9,123.3L71.9,123.3c-1.9,0-3.4-1.5-3.4-3.4V68.3c0-1.9,1.5-10.4,3.4-10.4h0c1.9,0,3.4,8.5,3.4,10.4v51.5    C75.3,121.7,73.8,123.3,71.9,123.3z"/>
		<path class="st31" d="M71.9,112L71.9,112c-1.9,0-3.4-1.5-3.4-3.4V95.9c0-1.9,1.5-3.4,3.4-3.4h0c1.9,0,3.4,1.5,3.4,3.4v12.7    C75.3,110.5,73.8,112,71.9,112z"/>
		<path class="st28" d="M71.9,104.1L71.9,104.1c-1.9,0-3.4-1.5-3.4-3.4V88c0-1.9,1.5-3.4,3.4-3.4h0c1.9,0,3.4,1.5,3.4,3.4v12.7    C75.3,102.6,73.8,104.1,71.9,104.1z"/>
		<path class="st32" d="M71.9,93.8L71.9,93.8c-1.9,0-3.4-1.5-3.4-3.4V77.7c0-1.9,1.5-3.4,3.4-3.4h0c1.9,0,3.4,1.5,3.4,3.4v12.7    C75.3,92.2,73.8,93.8,71.9,93.8z"/>
		<path class="st31" d="M71.9,81.5L71.9,81.5c-1.9,0-3.4-1.5-3.4-3.4V61.3c0-1.9,1.5-3.4,3.4-3.4h0c1.9,0,3.4,1.5,3.4,3.4v16.8    C75.3,80,73.8,81.5,71.9,81.5z"/>
		<path class="st31" d="M71.9,40.3L71.9,40.3c-1.9,0-3.4-1.5-3.4-3.4V24.1c0-1.9,1.5-3.4,3.4-3.4h0c1.9,0,3.4,1.5,3.4,3.4v12.7    C75.3,38.8,73.8,40.3,71.9,40.3z"/>
		<path class="st29" d="M50.1,40.1L50.1,40.1c1.8-0.6,2.8-2.5,2.2-4.3l-1.6-5.2c-0.6-1.8-2.5-2.8-4.3-2.2l0,0    c-1.8,0.6-2.8,2.5-2.2,4.3l1.6,5.2C46.4,39.7,48.3,40.7,50.1,40.1z"/>
		<path class="st29" d="M96.5,40.1L96.5,40.1c-1.8-0.6-2.8-2.5-2.2-4.3l1.6-5.2c0.6-1.8,2.5-2.8,4.3-2.2l0,0    c1.8,0.6,2.8,2.5,2.2,4.3l-1.6,5.2C100.2,39.7,98.2,40.7,96.5,40.1z"/>
		<path class="st29" d="M71.9,112.4L71.9,112.4c-1.9,0-3.4-1.5-3.4-3.4v-0.2c0-1.9,1.5-3.4,3.4-3.4h0c1.9,0,3.4,1.5,3.4,3.4v0.2    C75.3,110.9,73.8,112.4,71.9,112.4z"/>
		<path class="st31" d="M51.4,104.5L51.4,104.5c-1.9,0-3.4-1.5-3.4-3.4V66.3c0-1.9,1.5-8.3,3.4-8.3h0c1.9,0,3.4,6.5,3.4,8.3v34.8    C54.8,102.9,53.3,104.5,51.4,104.5z"/>
		<path class="st28" d="M51.4,98.6L51.4,98.6c-1.9,0-3.4-1.5-3.4-3.4v-9.8c0-1.9,1.5-3.4,3.4-3.4h0c1.9,0,3.4,1.5,3.4,3.4v9.8    C54.8,97.1,53.3,98.6,51.4,98.6z"/>
		<path class="st29" d="M51.4,90.8L51.4,90.8c-1.9,0-3.4-1.5-3.4-3.4v-9.8c0-1.9,1.5-3.4,3.4-3.4h0c1.9,0,3.4,1.5,3.4,3.4v9.8    C54.8,89.3,53.3,90.8,51.4,90.8z"/>
		<path class="st30" d="M51.4,84.6L51.4,84.6c-1.9,0-3.4-1.5-3.4-3.4v-5.6c0-1.9,1.5-3.4,3.4-3.4h0c1.9,0,3.4,1.5,3.4,3.4v5.6    C54.8,83,53.3,84.6,51.4,84.6z"/>
		<path class="st31" d="M51.4,79.4L51.4,79.4c-1.9,0-3.4-1.5-3.4-3.4V61.3c0-1.9,1.5-3.4,3.4-3.4h0c1.9,0,3.4,1.5,3.4,3.4V76    C54.8,77.9,53.3,79.4,51.4,79.4z"/>
		<path class="st32" d="M51.6,98.6L51.6,98.6c-1.9,0-3.4-1.5-3.4-3.4v-0.2c0-1.9,1.5-3.4,3.4-3.4h0c1.9,0,3.4,1.5,3.4,3.4v0.2    C55,97.1,53.4,98.6,51.6,98.6z"/>
		<path class="st31" d="M44.6,57.9L44.6,57.9c1.9,0,3.4,1.5,3.4,3.4v25.9c0,1.9-1.5,4.3-3.4,4.3h0c-1.9,0-3.4-2.4-3.4-4.3V61.3    C41.2,59.5,42.7,57.9,44.6,57.9z"/>
		<path class="st30" d="M97.6,71.5L97.6,71.5c-1.6,1-2,3.2-0.9,4.7l6.9,10.7c1,1.6,3,1.8,4.6,0.7h0c1.6-1,2.2-2.9,1.1-4.5l-6.9-10.7    C101.3,70.9,99.2,70.5,97.6,71.5z"/>
		<path class="st31" d="M92,75.3L92,75.3c-1.6,1-2,3.2-0.9,4.7l6.9,10.7c1,1.6,3,1.8,4.6,0.7h0c1.6-1,2.2-2.9,1.1-4.5l-6.9-10.7    C95.7,74.7,93.5,74.2,92,75.3z"/>
		<path class="st31" d="M97.5,58.4L97.5,58.4c-1.6,1-2,3.1-1,4.7l11.8,18.4c1,1.6,3.2,2,4.8,1h0c1.6-1,2-3.1,0.9-4.7l-11.8-18.4    C101.2,57.9,99.1,57.4,97.5,58.4z"/>
		<path class="st28" d="M44.6,71.9L44.6,71.9c1.9,0,3.4,1.5,3.4,3.4v6.5c0,1.9-1.5,3.4-3.4,3.4h0c-1.9,0-3.4-1.5-3.4-3.4v-6.5    C41.2,73.4,42.7,71.9,44.6,71.9z"/>
		<path class="st29" d="M44.6,76.5L44.6,76.5c1.9,0,3.4,1.5,3.4,3.4v9.8c0,1.9-1.5,3.4-3.4,3.4h0c-1.9,0-3.4-1.5-3.4-3.4v-9.8    C41.2,78,42.7,76.5,44.6,76.5z"/>
		<path class="st30" d="M44.6,82.7L44.6,82.7c1.9,0,3.4,1.5,3.4,3.4v5.6c0,1.9-1.5,1.8-3.4,1.8h0c-1.9,0-3.4,0.1-3.4-1.8v-5.6    C41.2,84.2,42.7,82.7,44.6,82.7z"/>
		<path class="st31" d="M44.6,87.8L44.6,87.8c1.9,0,3.4,1.5,3.4,3.4v5c0,1.9-1.5,3.4-3.4,3.4h0c-1.9,0-3.4-1.5-3.4-3.4v-5    C41.2,89.4,42.7,87.8,44.6,87.8z"/>
		<path class="st31" d="M98.9,57.9L98.9,57.9c-1.9,0-3.4,1.5-3.4,3.4v25.9c0,1.9,1.5,4.3,3.4,4.3h0c1.9,0,3.4-2.4,3.4-4.3V61.3    C102.3,59.5,100.7,57.9,98.9,57.9z"/>
		<path class="st28" d="M98.9,71.9L98.9,71.9c-1.9,0-3.4,1.5-3.4,3.4v6.5c0,1.9,1.5,3.4,3.4,3.4h0c1.9,0,3.4-1.5,3.4-3.4v-6.5    C102.3,73.4,100.7,71.9,98.9,71.9z"/>
		<path class="st28" d="M108.2,87.8L108.2,87.8c1.6-1,2-3.1,1-4.7l-1.9-3c-1-1.6-3.1-2-4.7-1h0c-1.6,1-2,3.1-1,4.7l1.9,3    C104.5,88.4,106.7,88.9,108.2,87.8z"/>
		<path class="st29" d="M98.9,76.5L98.9,76.5c-1.9,0-3.4,1.5-3.4,3.4v9.8c0,1.9,1.5,3.4,3.4,3.4h0c1.9,0,3.4-1.5,3.4-3.4v-9.8    C102.3,78,100.7,76.5,98.9,76.5z"/>
		<path class="st30" d="M98.9,82.7L98.9,82.7c-1.9,0-3.4,1.5-3.4,3.4v5.6c0,1,0.8,1.8,1.8,1.8h1.6c1.9,0,3.4-1.5,3.4-3.4v-4    C102.3,84.2,100.7,82.7,98.9,82.7z"/>
		<path class="st31" d="M98.9,87.8L98.9,87.8c-1.9,0-3.4,1.5-3.4,3.4v5c0,1.9,1.5,3.4,3.4,3.4h0c1.9,0,3.4-1.5,3.4-3.4v-5    C102.3,89.4,100.7,87.8,98.9,87.8z"/>
		<path class="st28" d="M92.4,104.5L92.4,104.5c-1.9,0-3.4-1.5-3.4-3.4V66.3c0-1.9,1.5-7.5,3.4-7.5h0c1.9,0,3.4,5.6,3.4,7.5v34.8    C95.8,102.9,94.2,104.5,92.4,104.5z"/>
		<path class="st28" d="M92.4,98.6L92.4,98.6c-1.9,0-3.4-1.5-3.4-3.4v-9.8c0-1.9,1.5-3.4,3.4-3.4h0c1.9,0,3.4,1.5,3.4,3.4v9.8    C95.8,97.1,94.2,98.6,92.4,98.6z"/>
		<path class="st32" d="M92.4,90.8L92.4,90.8c-1.9,0-3.4-1.5-3.4-3.4v-9.8c0-1.9,1.5-3.4,3.4-3.4h0c1.9,0,3.4,1.5,3.4,3.4v9.8    C95.8,89.3,94.2,90.8,92.4,90.8z"/>
		<path class="st31" d="M92.4,84.6L92.4,84.6c-1.9,0-3.4-1.5-3.4-3.4v-5.6c0-1.9,1.5-3.4,3.4-3.4h0c1.9,0,3.4,1.5,3.4,3.4v5.6    C95.8,83,94.2,84.6,92.4,84.6z"/>
		<path class="st30" d="M92.4,79.4L92.4,79.4c-1.9,0-3.4-1.5-3.4-3.4V62.1c0-1.9,1.5-3.4,3.4-3.4h0c1.9,0,3.4,1.5,3.4,3.4V76    C95.8,77.9,94.2,79.4,92.4,79.4z"/>
		<path class="st29" d="M92.4,98.6L92.4,98.6c-1.9,0-3.4-1.5-3.4-3.4v-0.2c0-1.9,1.5-3.4,3.4-3.4h0c1.9,0,3.4,1.5,3.4,3.4v0.2    C95.8,97.1,94.2,98.6,92.4,98.6z"/>
		<path class="st30" d="M111.2,83.1L111.2,83.1c-1.9,0-3.4-1.5-3.4-3.4v-0.2c0-1.9,1.5-3.4,3.4-3.4h0c1.9,0,3.4,1.5,3.4,3.4v0.2    C114.6,81.6,113,83.1,111.2,83.1z"/>
		<path class="st29" d="M37.1,88L37.1,88c-1.9,0-3.4-1.5-3.4-3.4v-0.2c0-1.9,1.5-3.4,3.4-3.4h0c1.9,0,3.4,1.5,3.4,3.4v0.2    C40.5,86.5,38.9,88,37.1,88z"/>
	</g>
</g>
</svg>